<mxfile host="65bd71144e">
    <diagram id="YnOl_m18Om6cisxJbe4u" name="Page-1">
        <mxGraphModel dx="786" dy="636" grid="1" gridSize="10" guides="1" tooltips="1" connect="1" arrows="1" fold="1" page="1" pageScale="1" pageWidth="850" pageHeight="1100" background="#ffffff" math="0" shadow="0">
            <root>
                <mxCell id="0"/>
                <mxCell id="1" parent="0"/>
                <mxCell id="36" value="&lt;div&gt;&lt;span style=&quot;font-size: 10px;&quot;&gt;&lt;b&gt;&lt;br&gt;&lt;/b&gt;&lt;/span&gt;&lt;/div&gt;&lt;span style=&quot;font-size: 10px;&quot;&gt;&lt;b&gt;LOAD PORT&lt;/b&gt;&lt;br&gt;&lt;/span&gt;" style="shape=cube;whiteSpace=wrap;html=1;boundedLbl=1;backgroundOutline=1;darkOpacity=0.05;darkOpacity2=0.1;fontSize=9;verticalAlign=top;align=left;size=0;spacingLeft=4;fillColor=#FFFFFF;fontColor=#000000;strokeColor=#000000;" parent="1" vertex="1">
                    <mxGeometry x="23.61" y="182.74" width="80" height="80.26" as="geometry"/>
                </mxCell>
                <mxCell id="111" value="Load Port" style="rounded=0;whiteSpace=wrap;html=1;fillColor=#008a00;fontColor=#ffffff;strokeColor=#005700;" parent="1" vertex="1">
                    <mxGeometry x="28.61" y="224.69" width="65" height="28.75" as="geometry"/>
                </mxCell>
                <mxCell id="434" value="" style="group;movable=0;resizable=0;rotatable=0;deletable=0;editable=0;locked=1;connectable=0;" parent="1" vertex="1" connectable="0">
                    <mxGeometry x="120.61" y="213.37" width="72" height="61" as="geometry"/>
                </mxCell>
                <mxCell id="385" value="&lt;b&gt;Index Robot&lt;/b&gt;&lt;div&gt;&lt;b&gt;(IDX)&lt;/b&gt;&lt;/div&gt;" style="shape=cube;whiteSpace=wrap;html=1;boundedLbl=1;backgroundOutline=1;darkOpacity=0.05;darkOpacity2=0.1;fontSize=9;verticalAlign=top;align=left;size=0;spacingLeft=4;fillColor=#f9f7ed;strokeColor=#36393d;dashed=1;fillStyle=solid;movable=1;resizable=1;rotatable=1;deletable=1;editable=1;locked=0;connectable=1;" parent="434" vertex="1">
                    <mxGeometry y="-10" width="72" height="71" as="geometry"/>
                </mxCell>
                <mxCell id="386" value="" style="group;strokeColor=none;fontColor=#000000;" parent="434" vertex="1" connectable="0">
                    <mxGeometry x="10.262222222222249" y="22.879999999999995" width="58.26666666666668" height="30" as="geometry"/>
                </mxCell>
                <mxCell id="387" value="" style="group;strokeColor=none;fontColor=#000000;" parent="386" vertex="1" connectable="0">
                    <mxGeometry width="53.155555555555566" height="30" as="geometry"/>
                </mxCell>
                <mxCell id="388" value="" style="endArrow=none;html=1;strokeColor=#000000;fontColor=#000000;" parent="387" edge="1">
                    <mxGeometry width="50" height="50" relative="1" as="geometry">
                        <mxPoint x="22.48888888888889" y="15" as="sourcePoint"/>
                        <mxPoint x="41.91111111111111" y="30" as="targetPoint"/>
                    </mxGeometry>
                </mxCell>
                <mxCell id="389" value="" style="endArrow=none;html=1;strokeColor=#000000;fontColor=#000000;" parent="387" edge="1">
                    <mxGeometry width="50" height="50" relative="1" as="geometry">
                        <mxPoint x="52.13333333333334" y="23" as="sourcePoint"/>
                        <mxPoint x="40.88888888888889" y="30" as="targetPoint"/>
                        <Array as="points"/>
                    </mxGeometry>
                </mxCell>
                <mxCell id="390" value="" style="endArrow=none;html=1;strokeColor=#000000;fontColor=#000000;" parent="387" edge="1">
                    <mxGeometry width="50" height="50" relative="1" as="geometry">
                        <mxPoint x="22.48888888888889" y="15" as="sourcePoint"/>
                        <mxPoint x="42.93333333333334" y="2" as="targetPoint"/>
                        <Array as="points">
                            <mxPoint x="42.93333333333334" y="2"/>
                        </Array>
                    </mxGeometry>
                </mxCell>
                <mxCell id="391" value="" style="endArrow=none;html=1;strokeColor=#000000;fontColor=#000000;" parent="387" edge="1">
                    <mxGeometry width="50" height="50" relative="1" as="geometry">
                        <mxPoint x="53.155555555555566" y="10" as="sourcePoint"/>
                        <mxPoint x="41.91111111111111" y="2" as="targetPoint"/>
                    </mxGeometry>
                </mxCell>
                <mxCell id="392" value="" style="endArrow=none;html=1;strokeColor=#000000;fontColor=#000000;" parent="387" edge="1">
                    <mxGeometry width="50" height="50" relative="1" as="geometry">
                        <mxPoint x="30.666666666666668" y="15.370000000000005" as="sourcePoint"/>
                        <mxPoint x="11.244444444444445" as="targetPoint"/>
                    </mxGeometry>
                </mxCell>
                <mxCell id="393" value="" style="endArrow=none;html=1;strokeColor=#000000;fontColor=#000000;" parent="387" edge="1">
                    <mxGeometry width="50" height="50" relative="1" as="geometry">
                        <mxPoint x="1.0222222222222224" y="7" as="sourcePoint"/>
                        <mxPoint x="12.26666666666667" as="targetPoint"/>
                        <Array as="points"/>
                    </mxGeometry>
                </mxCell>
                <mxCell id="394" value="" style="endArrow=none;html=1;strokeColor=#000000;fontColor=#000000;" parent="387" edge="1">
                    <mxGeometry width="50" height="50" relative="1" as="geometry">
                        <mxPoint x="30.666666666666668" y="15.370000000000005" as="sourcePoint"/>
                        <mxPoint x="10.222222222222223" y="28" as="targetPoint"/>
                        <Array as="points">
                            <mxPoint x="10.222222222222223" y="28"/>
                        </Array>
                    </mxGeometry>
                </mxCell>
                <mxCell id="395" value="" style="endArrow=none;html=1;strokeColor=#000000;fontColor=#000000;" parent="387" edge="1">
                    <mxGeometry width="50" height="50" relative="1" as="geometry">
                        <mxPoint y="20" as="sourcePoint"/>
                        <mxPoint x="11.244444444444445" y="28" as="targetPoint"/>
                    </mxGeometry>
                </mxCell>
                <mxCell id="396" value="" style="ellipse;whiteSpace=wrap;html=1;rotation=-180;fillColor=#FFFFFF;strokeColor=#000000;fontColor=#000000;" parent="387" vertex="1">
                    <mxGeometry x="21.46666666666667" y="10" width="10.222222222222223" height="10" as="geometry"/>
                </mxCell>
                <mxCell id="397" value="&lt;font style=&quot;font-size: 8px;&quot;&gt;arm1&lt;/font&gt;" style="text;html=1;strokeColor=none;fillColor=none;align=center;verticalAlign=middle;whiteSpace=wrap;rounded=0;dashed=1;fontColor=#000000;" parent="387" vertex="1">
                    <mxGeometry x="-5.111111111111112" y="-1" width="21.46666666666667" height="30" as="geometry"/>
                </mxCell>
                <mxCell id="398" value="&lt;font style=&quot;font-size: 8px;&quot;&gt;arm2&lt;/font&gt;" style="text;html=1;strokeColor=none;fillColor=none;align=center;verticalAlign=middle;whiteSpace=wrap;rounded=0;dashed=1;fontColor=#000000;" parent="386" vertex="1">
                    <mxGeometry x="36.80000000000001" width="21.46666666666667" height="30" as="geometry"/>
                </mxCell>
                <mxCell id="440" value="" style="group" parent="1" vertex="1" connectable="0">
                    <mxGeometry x="208.81" y="133" width="80" height="100" as="geometry"/>
                </mxCell>
                <mxCell id="37" value="&lt;b style=&quot;&quot;&gt;&lt;font&gt;Loading Buffer&lt;/font&gt;&lt;br&gt;&lt;/b&gt;" style="shape=cube;whiteSpace=wrap;html=1;boundedLbl=1;backgroundOutline=1;darkOpacity=0.05;darkOpacity2=0.1;fontSize=9;align=left;verticalAlign=top;size=0;spacingLeft=4;fillColor=#FFFFFF;fontColor=#000000;strokeColor=#000000;" parent="440" vertex="1">
                    <mxGeometry width="80" height="100" as="geometry"/>
                </mxCell>
                <mxCell id="435" value="LDBuf.1" style="rounded=0;whiteSpace=wrap;html=1;fillColor=light-dark(#a4b497, #7d7d7d);fontColor=#000000;strokeColor=#000000;fontSize=10;" parent="440" vertex="1">
                    <mxGeometry x="7.499999999999972" y="23.560000000000002" width="65" height="12.18" as="geometry"/>
                </mxCell>
                <mxCell id="436" value="LDBuf.2" style="rounded=0;whiteSpace=wrap;html=1;fillColor=light-dark(#a4b497, #7d7d7d);fontColor=#000000;strokeColor=#000000;fontSize=10;" parent="440" vertex="1">
                    <mxGeometry x="7.499999999999972" y="39.91" width="65" height="12.18" as="geometry"/>
                </mxCell>
                <mxCell id="437" value="LDBuf.3" style="rounded=0;whiteSpace=wrap;html=1;fillColor=light-dark(#a4b497, #7d7d7d);fontColor=#000000;strokeColor=#000000;fontSize=10;" parent="440" vertex="1">
                    <mxGeometry x="7.499999999999972" y="56.099999999999994" width="65" height="12.18" as="geometry"/>
                </mxCell>
                <mxCell id="438" value="LDBuf.4" style="rounded=0;whiteSpace=wrap;html=1;fillColor=light-dark(#a4b497, #7d7d7d);fontColor=#000000;strokeColor=#000000;fontSize=10;" parent="440" vertex="1">
                    <mxGeometry x="7.999999999999972" y="71.78" width="65" height="12.18" as="geometry"/>
                </mxCell>
                <mxCell id="597" style="edgeStyle=none;html=1;" parent="1" source="339" edge="1">
                    <mxGeometry relative="1" as="geometry">
                        <mxPoint x="383" y="99" as="targetPoint"/>
                        <Array as="points">
                            <mxPoint x="343" y="99"/>
                        </Array>
                    </mxGeometry>
                </mxCell>
                <mxCell id="339" value="&lt;b&gt;Main Loading Robot (MLR)&lt;/b&gt;" style="shape=cube;whiteSpace=wrap;html=1;boundedLbl=1;backgroundOutline=1;darkOpacity=0.05;darkOpacity2=0.1;fontSize=9;verticalAlign=top;align=left;size=0;spacingLeft=4;fillColor=#f9f7ed;strokeColor=#36393d;dashed=1;fillStyle=solid;" parent="1" vertex="1">
                    <mxGeometry x="303.61" y="153" width="80" height="70" as="geometry"/>
                </mxCell>
                <mxCell id="340" value="" style="group;strokeColor=none;fontColor=#000000;" parent="1" vertex="1" connectable="0">
                    <mxGeometry x="319.41" y="183.88" width="57" height="30" as="geometry"/>
                </mxCell>
                <mxCell id="341" value="" style="group;strokeColor=none;fontColor=#000000;" parent="340" vertex="1" connectable="0">
                    <mxGeometry width="52" height="30" as="geometry"/>
                </mxCell>
                <mxCell id="342" value="" style="endArrow=none;html=1;strokeColor=#000000;fontColor=#000000;" parent="341" edge="1">
                    <mxGeometry width="50" height="50" relative="1" as="geometry">
                        <mxPoint x="22" y="15" as="sourcePoint"/>
                        <mxPoint x="41" y="30" as="targetPoint"/>
                    </mxGeometry>
                </mxCell>
                <mxCell id="343" value="" style="endArrow=none;html=1;strokeColor=#000000;fontColor=#000000;" parent="341" edge="1">
                    <mxGeometry width="50" height="50" relative="1" as="geometry">
                        <mxPoint x="51" y="23" as="sourcePoint"/>
                        <mxPoint x="40" y="30" as="targetPoint"/>
                        <Array as="points"/>
                    </mxGeometry>
                </mxCell>
                <mxCell id="344" value="" style="endArrow=none;html=1;strokeColor=#000000;fontColor=#000000;" parent="341" edge="1">
                    <mxGeometry width="50" height="50" relative="1" as="geometry">
                        <mxPoint x="22" y="15" as="sourcePoint"/>
                        <mxPoint x="42" y="2" as="targetPoint"/>
                        <Array as="points">
                            <mxPoint x="42" y="2"/>
                        </Array>
                    </mxGeometry>
                </mxCell>
                <mxCell id="345" value="" style="endArrow=none;html=1;strokeColor=#000000;fontColor=#000000;" parent="341" edge="1">
                    <mxGeometry width="50" height="50" relative="1" as="geometry">
                        <mxPoint x="52" y="10" as="sourcePoint"/>
                        <mxPoint x="41" y="2" as="targetPoint"/>
                    </mxGeometry>
                </mxCell>
                <mxCell id="346" value="" style="endArrow=none;html=1;strokeColor=#000000;fontColor=#000000;" parent="341" edge="1">
                    <mxGeometry width="50" height="50" relative="1" as="geometry">
                        <mxPoint x="30" y="15.370000000000005" as="sourcePoint"/>
                        <mxPoint x="11" as="targetPoint"/>
                    </mxGeometry>
                </mxCell>
                <mxCell id="347" value="" style="endArrow=none;html=1;strokeColor=#000000;fontColor=#000000;" parent="341" edge="1">
                    <mxGeometry width="50" height="50" relative="1" as="geometry">
                        <mxPoint x="1" y="7" as="sourcePoint"/>
                        <mxPoint x="12" as="targetPoint"/>
                        <Array as="points"/>
                    </mxGeometry>
                </mxCell>
                <mxCell id="348" value="" style="endArrow=none;html=1;strokeColor=#000000;fontColor=#000000;" parent="341" edge="1">
                    <mxGeometry width="50" height="50" relative="1" as="geometry">
                        <mxPoint x="30" y="15.370000000000005" as="sourcePoint"/>
                        <mxPoint x="10" y="28" as="targetPoint"/>
                        <Array as="points">
                            <mxPoint x="10" y="28"/>
                        </Array>
                    </mxGeometry>
                </mxCell>
                <mxCell id="349" value="" style="endArrow=none;html=1;strokeColor=#000000;fontColor=#000000;" parent="341" edge="1">
                    <mxGeometry width="50" height="50" relative="1" as="geometry">
                        <mxPoint y="20" as="sourcePoint"/>
                        <mxPoint x="11" y="28" as="targetPoint"/>
                    </mxGeometry>
                </mxCell>
                <mxCell id="350" value="" style="ellipse;whiteSpace=wrap;html=1;rotation=-180;fillColor=#FFFFFF;strokeColor=#000000;fontColor=#000000;" parent="341" vertex="1">
                    <mxGeometry x="21" y="10" width="10" height="10" as="geometry"/>
                </mxCell>
                <mxCell id="351" value="&lt;font style=&quot;font-size: 8px;&quot;&gt;arm1&lt;/font&gt;" style="text;html=1;strokeColor=none;fillColor=none;align=center;verticalAlign=middle;whiteSpace=wrap;rounded=0;dashed=1;fontColor=#000000;" parent="341" vertex="1">
                    <mxGeometry x="-5" y="-1" width="21" height="30" as="geometry"/>
                </mxCell>
                <mxCell id="352" value="&lt;font style=&quot;font-size: 8px;&quot;&gt;arm2&lt;/font&gt;" style="text;html=1;strokeColor=none;fillColor=none;align=center;verticalAlign=middle;whiteSpace=wrap;rounded=0;dashed=1;fontColor=#000000;" parent="340" vertex="1">
                    <mxGeometry x="36" width="21" height="30" as="geometry"/>
                </mxCell>
                <mxCell id="448" value="&lt;b&gt;Main Unloading Robot (MUR)&lt;/b&gt;" style="shape=cube;whiteSpace=wrap;html=1;boundedLbl=1;backgroundOutline=1;darkOpacity=0.05;darkOpacity2=0.1;fontSize=9;verticalAlign=top;align=left;size=0;spacingLeft=4;fillColor=#f9f7ed;strokeColor=#36393d;dashed=1;fillStyle=solid;" parent="1" vertex="1">
                    <mxGeometry x="303.61" y="243" width="80" height="70" as="geometry"/>
                </mxCell>
                <mxCell id="449" value="" style="group;strokeColor=none;fontColor=#000000;" parent="1" vertex="1" connectable="0">
                    <mxGeometry x="319.41" y="273.88" width="57" height="30" as="geometry"/>
                </mxCell>
                <mxCell id="450" value="" style="group;strokeColor=none;fontColor=#000000;" parent="449" vertex="1" connectable="0">
                    <mxGeometry width="52" height="30" as="geometry"/>
                </mxCell>
                <mxCell id="451" value="" style="endArrow=none;html=1;strokeColor=#000000;fontColor=#000000;" parent="450" edge="1">
                    <mxGeometry width="50" height="50" relative="1" as="geometry">
                        <mxPoint x="22" y="15" as="sourcePoint"/>
                        <mxPoint x="41" y="30" as="targetPoint"/>
                    </mxGeometry>
                </mxCell>
                <mxCell id="452" value="" style="endArrow=none;html=1;strokeColor=#000000;fontColor=#000000;" parent="450" edge="1">
                    <mxGeometry width="50" height="50" relative="1" as="geometry">
                        <mxPoint x="51" y="23" as="sourcePoint"/>
                        <mxPoint x="40" y="30" as="targetPoint"/>
                        <Array as="points"/>
                    </mxGeometry>
                </mxCell>
                <mxCell id="453" value="" style="endArrow=none;html=1;strokeColor=#000000;fontColor=#000000;" parent="450" edge="1">
                    <mxGeometry width="50" height="50" relative="1" as="geometry">
                        <mxPoint x="22" y="15" as="sourcePoint"/>
                        <mxPoint x="42" y="2" as="targetPoint"/>
                        <Array as="points">
                            <mxPoint x="42" y="2"/>
                        </Array>
                    </mxGeometry>
                </mxCell>
                <mxCell id="454" value="" style="endArrow=none;html=1;strokeColor=#000000;fontColor=#000000;" parent="450" edge="1">
                    <mxGeometry width="50" height="50" relative="1" as="geometry">
                        <mxPoint x="52" y="10" as="sourcePoint"/>
                        <mxPoint x="41" y="2" as="targetPoint"/>
                    </mxGeometry>
                </mxCell>
                <mxCell id="455" value="" style="endArrow=none;html=1;strokeColor=#000000;fontColor=#000000;" parent="450" edge="1">
                    <mxGeometry width="50" height="50" relative="1" as="geometry">
                        <mxPoint x="30" y="15.370000000000005" as="sourcePoint"/>
                        <mxPoint x="11" as="targetPoint"/>
                    </mxGeometry>
                </mxCell>
                <mxCell id="456" value="" style="endArrow=none;html=1;strokeColor=#000000;fontColor=#000000;" parent="450" edge="1">
                    <mxGeometry width="50" height="50" relative="1" as="geometry">
                        <mxPoint x="1" y="7" as="sourcePoint"/>
                        <mxPoint x="12" as="targetPoint"/>
                        <Array as="points"/>
                    </mxGeometry>
                </mxCell>
                <mxCell id="457" value="" style="endArrow=none;html=1;strokeColor=#000000;fontColor=#000000;" parent="450" edge="1">
                    <mxGeometry width="50" height="50" relative="1" as="geometry">
                        <mxPoint x="30" y="15.370000000000005" as="sourcePoint"/>
                        <mxPoint x="10" y="28" as="targetPoint"/>
                        <Array as="points">
                            <mxPoint x="10" y="28"/>
                        </Array>
                    </mxGeometry>
                </mxCell>
                <mxCell id="458" value="" style="endArrow=none;html=1;strokeColor=#000000;fontColor=#000000;" parent="450" edge="1">
                    <mxGeometry width="50" height="50" relative="1" as="geometry">
                        <mxPoint y="20" as="sourcePoint"/>
                        <mxPoint x="11" y="28" as="targetPoint"/>
                    </mxGeometry>
                </mxCell>
                <mxCell id="459" value="" style="ellipse;whiteSpace=wrap;html=1;rotation=-180;fillColor=#FFFFFF;strokeColor=#000000;fontColor=#000000;" parent="450" vertex="1">
                    <mxGeometry x="21" y="10" width="10" height="10" as="geometry"/>
                </mxCell>
                <mxCell id="460" value="&lt;font style=&quot;font-size: 8px;&quot;&gt;arm1&lt;/font&gt;" style="text;html=1;strokeColor=none;fillColor=none;align=center;verticalAlign=middle;whiteSpace=wrap;rounded=0;dashed=1;fontColor=#000000;" parent="450" vertex="1">
                    <mxGeometry x="-5" y="-1" width="21" height="30" as="geometry"/>
                </mxCell>
                <mxCell id="461" value="&lt;font style=&quot;font-size: 8px;&quot;&gt;arm2&lt;/font&gt;" style="text;html=1;strokeColor=none;fillColor=none;align=center;verticalAlign=middle;whiteSpace=wrap;rounded=0;dashed=1;fontColor=#000000;" parent="449" vertex="1">
                    <mxGeometry x="36" width="21" height="30" as="geometry"/>
                </mxCell>
                <mxCell id="464" value="UnitA.4_1" style="rounded=0;whiteSpace=wrap;html=1;fontSize=9;fillColor=light-dark(#a77676, #ededed);" parent="1" vertex="1">
                    <mxGeometry x="403.61" y="59.00000000000006" width="59.39" height="20" as="geometry"/>
                </mxCell>
                <mxCell id="465" value="UnitA.4_2" style="rounded=0;whiteSpace=wrap;html=1;fontSize=9;fillColor=light-dark(#a77676, #ededed);" parent="1" vertex="1">
                    <mxGeometry x="403.61" y="81.00000000000006" width="59.39" height="20" as="geometry"/>
                </mxCell>
                <mxCell id="466" value="UnitB.4_1" style="rounded=0;whiteSpace=wrap;html=1;fontSize=9;fillColor=light-dark(#6a9580, #7b9c8c);fontColor=#000000;strokeColor=#000000;" parent="1" vertex="1">
                    <mxGeometry x="467.61" y="59.00000000000006" width="59.39" height="20" as="geometry"/>
                </mxCell>
                <mxCell id="467" value="UnitB.4_2" style="rounded=0;whiteSpace=wrap;html=1;fontSize=9;fillColor=light-dark(#6a9580, #7b9c8c);fontColor=#000000;strokeColor=#000000;" parent="1" vertex="1">
                    <mxGeometry x="467.61" y="81.00000000000006" width="59.39" height="20" as="geometry"/>
                </mxCell>
                <mxCell id="468" value="UnitC.4_1" style="rounded=0;whiteSpace=wrap;html=1;fontSize=9;fillColor=light-dark(#76789E,#7D8C9B);fontColor=#000000;strokeColor=#000000;" parent="1" vertex="1">
                    <mxGeometry x="531.61" y="59.00000000000006" width="59.39" height="20" as="geometry"/>
                </mxCell>
                <mxCell id="469" value="UnitC.4_2" style="rounded=0;whiteSpace=wrap;html=1;fontSize=9;fillColor=light-dark(#76789E,#7D8C9B);fontColor=#000000;strokeColor=#000000;" parent="1" vertex="1">
                    <mxGeometry x="531.61" y="81.00000000000006" width="59.39" height="20" as="geometry"/>
                </mxCell>
                <mxCell id="470" value="UnitD.4_1" style="rounded=0;whiteSpace=wrap;html=1;fontSize=9;fillColor=#8C8C1C;fontColor=#000000;strokeColor=#000000;" parent="1" vertex="1">
                    <mxGeometry x="596.61" y="59.00000000000006" width="59.39" height="20" as="geometry"/>
                </mxCell>
                <mxCell id="471" value="UnitD.4_2" style="rounded=0;whiteSpace=wrap;html=1;fontSize=9;fillColor=#8C8C1C;fontColor=#000000;strokeColor=#000000;" parent="1" vertex="1">
                    <mxGeometry x="596.61" y="81.00000000000006" width="59.39" height="20" as="geometry"/>
                </mxCell>
                <mxCell id="473" value="&lt;b&gt;Main Transport Robot (MTR4)&lt;/b&gt;" style="shape=cube;whiteSpace=wrap;html=1;boundedLbl=1;backgroundOutline=1;darkOpacity=0.05;darkOpacity2=0.1;fontSize=9;verticalAlign=top;align=left;size=0;spacingLeft=4;fillColor=#f9f7ed;strokeColor=#36393d;dashed=1;fillStyle=solid;" parent="1" vertex="1">
                    <mxGeometry x="403.61" y="104" width="250" height="35" as="geometry"/>
                </mxCell>
                <mxCell id="486" value="&lt;font style=&quot;font-size: 8px;&quot;&gt;arm2&lt;/font&gt;" style="text;html=1;strokeColor=none;fillColor=none;align=center;verticalAlign=middle;whiteSpace=wrap;rounded=0;dashed=1;fontColor=#000000;container=0;" parent="1" vertex="1">
                    <mxGeometry x="594.61" y="107" width="21" height="30" as="geometry"/>
                </mxCell>
                <mxCell id="476" value="" style="endArrow=none;html=1;strokeColor=#000000;fontColor=#000000;" parent="1" edge="1">
                    <mxGeometry width="50" height="50" relative="1" as="geometry">
                        <mxPoint x="580.61" y="122" as="sourcePoint"/>
                        <mxPoint x="599.61" y="137" as="targetPoint"/>
                    </mxGeometry>
                </mxCell>
                <mxCell id="477" value="" style="endArrow=none;html=1;strokeColor=#000000;fontColor=#000000;" parent="1" edge="1">
                    <mxGeometry width="50" height="50" relative="1" as="geometry">
                        <mxPoint x="609.61" y="130" as="sourcePoint"/>
                        <mxPoint x="598.61" y="137" as="targetPoint"/>
                        <Array as="points"/>
                    </mxGeometry>
                </mxCell>
                <mxCell id="478" value="" style="endArrow=none;html=1;strokeColor=#000000;fontColor=#000000;" parent="1" edge="1">
                    <mxGeometry width="50" height="50" relative="1" as="geometry">
                        <mxPoint x="580.61" y="122" as="sourcePoint"/>
                        <mxPoint x="600.61" y="109" as="targetPoint"/>
                        <Array as="points">
                            <mxPoint x="600.61" y="109"/>
                        </Array>
                    </mxGeometry>
                </mxCell>
                <mxCell id="479" value="" style="endArrow=none;html=1;strokeColor=#000000;fontColor=#000000;" parent="1" edge="1">
                    <mxGeometry width="50" height="50" relative="1" as="geometry">
                        <mxPoint x="610.61" y="117" as="sourcePoint"/>
                        <mxPoint x="599.61" y="109" as="targetPoint"/>
                    </mxGeometry>
                </mxCell>
                <mxCell id="480" value="" style="endArrow=none;html=1;strokeColor=#000000;fontColor=#000000;" parent="1" edge="1">
                    <mxGeometry width="50" height="50" relative="1" as="geometry">
                        <mxPoint x="588.61" y="122.37" as="sourcePoint"/>
                        <mxPoint x="569.61" y="107" as="targetPoint"/>
                    </mxGeometry>
                </mxCell>
                <mxCell id="481" value="" style="endArrow=none;html=1;strokeColor=#000000;fontColor=#000000;" parent="1" edge="1">
                    <mxGeometry width="50" height="50" relative="1" as="geometry">
                        <mxPoint x="559.61" y="114" as="sourcePoint"/>
                        <mxPoint x="570.61" y="107" as="targetPoint"/>
                        <Array as="points"/>
                    </mxGeometry>
                </mxCell>
                <mxCell id="482" value="" style="endArrow=none;html=1;strokeColor=#000000;fontColor=#000000;" parent="1" edge="1">
                    <mxGeometry width="50" height="50" relative="1" as="geometry">
                        <mxPoint x="588.61" y="122.37" as="sourcePoint"/>
                        <mxPoint x="568.61" y="135" as="targetPoint"/>
                        <Array as="points">
                            <mxPoint x="568.61" y="135"/>
                        </Array>
                    </mxGeometry>
                </mxCell>
                <mxCell id="483" value="" style="endArrow=none;html=1;strokeColor=#000000;fontColor=#000000;" parent="1" edge="1">
                    <mxGeometry width="50" height="50" relative="1" as="geometry">
                        <mxPoint x="558.61" y="127" as="sourcePoint"/>
                        <mxPoint x="569.61" y="135" as="targetPoint"/>
                    </mxGeometry>
                </mxCell>
                <mxCell id="484" value="" style="ellipse;whiteSpace=wrap;html=1;rotation=-180;fillColor=#FFFFFF;strokeColor=#000000;fontColor=#000000;container=0;" parent="1" vertex="1">
                    <mxGeometry x="579.61" y="117" width="10" height="10" as="geometry"/>
                </mxCell>
                <mxCell id="485" value="&lt;font style=&quot;font-size: 8px;&quot;&gt;arm1&lt;/font&gt;" style="text;html=1;strokeColor=none;fillColor=none;align=center;verticalAlign=middle;whiteSpace=wrap;rounded=0;dashed=1;fontColor=#000000;container=0;" parent="1" vertex="1">
                    <mxGeometry x="553.61" y="106" width="21" height="30" as="geometry"/>
                </mxCell>
                <mxCell id="487" value="UnitA.3_1" style="rounded=0;whiteSpace=wrap;html=1;fontSize=9;fillColor=light-dark(#a77676, #ededed);" parent="1" vertex="1">
                    <mxGeometry x="403.61" y="151.37000000000006" width="59.39" height="20" as="geometry"/>
                </mxCell>
                <mxCell id="488" value="UnitA.3_2" style="rounded=0;whiteSpace=wrap;html=1;fontSize=9;fillColor=light-dark(#a77676, #ededed);" parent="1" vertex="1">
                    <mxGeometry x="403.61" y="173.37000000000006" width="59.39" height="20" as="geometry"/>
                </mxCell>
                <mxCell id="489" value="UnitB.3_1" style="rounded=0;whiteSpace=wrap;html=1;fontSize=9;fillColor=light-dark(#6a9580, #7b9c8c);fontColor=#000000;strokeColor=#000000;" parent="1" vertex="1">
                    <mxGeometry x="467.61" y="151.37000000000006" width="59.39" height="20" as="geometry"/>
                </mxCell>
                <mxCell id="490" value="UnitB.3_2" style="rounded=0;whiteSpace=wrap;html=1;fontSize=9;fillColor=light-dark(#6a9580, #7b9c8c);fontColor=#000000;strokeColor=#000000;" parent="1" vertex="1">
                    <mxGeometry x="467.61" y="173.37000000000006" width="59.39" height="20" as="geometry"/>
                </mxCell>
                <mxCell id="491" value="UnitC.3_1" style="rounded=0;whiteSpace=wrap;html=1;fontSize=9;fillColor=light-dark(#76789E,#7D8C9B);fontColor=#000000;strokeColor=#000000;" parent="1" vertex="1">
                    <mxGeometry x="531.61" y="151.37000000000006" width="59.39" height="20" as="geometry"/>
                </mxCell>
                <mxCell id="492" value="UnitC.3_2" style="rounded=0;whiteSpace=wrap;html=1;fontSize=9;fillColor=light-dark(#76789E,#7D8C9B);fontColor=#000000;strokeColor=#000000;" parent="1" vertex="1">
                    <mxGeometry x="531.61" y="173.37000000000006" width="59.39" height="20" as="geometry"/>
                </mxCell>
                <mxCell id="493" value="UnitD.3_1" style="rounded=0;whiteSpace=wrap;html=1;fontSize=9;fillColor=#8C8C1C;fontColor=#000000;strokeColor=#000000;" parent="1" vertex="1">
                    <mxGeometry x="596.61" y="151.37000000000006" width="59.39" height="20" as="geometry"/>
                </mxCell>
                <mxCell id="494" value="UnitD.3_2" style="rounded=0;whiteSpace=wrap;html=1;fontSize=9;fillColor=#8C8C1C;fontColor=#000000;strokeColor=#000000;" parent="1" vertex="1">
                    <mxGeometry x="596.61" y="173.37000000000006" width="59.39" height="20" as="geometry"/>
                </mxCell>
                <mxCell id="495" value="&lt;b&gt;Main Transport Robot (MTR3)&lt;/b&gt;" style="shape=cube;whiteSpace=wrap;html=1;boundedLbl=1;backgroundOutline=1;darkOpacity=0.05;darkOpacity2=0.1;fontSize=9;verticalAlign=top;align=left;size=0;spacingLeft=4;fillColor=#f9f7ed;strokeColor=#36393d;dashed=1;fillStyle=solid;" parent="1" vertex="1">
                    <mxGeometry x="403.61" y="196.37" width="250" height="35" as="geometry"/>
                </mxCell>
                <mxCell id="496" value="&lt;font style=&quot;font-size: 8px;&quot;&gt;arm2&lt;/font&gt;" style="text;html=1;strokeColor=none;fillColor=none;align=center;verticalAlign=middle;whiteSpace=wrap;rounded=0;dashed=1;fontColor=#000000;container=0;" parent="1" vertex="1">
                    <mxGeometry x="594.61" y="199.37" width="21" height="30" as="geometry"/>
                </mxCell>
                <mxCell id="497" value="" style="endArrow=none;html=1;strokeColor=#000000;fontColor=#000000;" parent="1" edge="1">
                    <mxGeometry width="50" height="50" relative="1" as="geometry">
                        <mxPoint x="580.61" y="214.37" as="sourcePoint"/>
                        <mxPoint x="599.61" y="229.37" as="targetPoint"/>
                    </mxGeometry>
                </mxCell>
                <mxCell id="498" value="" style="endArrow=none;html=1;strokeColor=#000000;fontColor=#000000;" parent="1" edge="1">
                    <mxGeometry width="50" height="50" relative="1" as="geometry">
                        <mxPoint x="609.61" y="222.37" as="sourcePoint"/>
                        <mxPoint x="598.61" y="229.37" as="targetPoint"/>
                        <Array as="points"/>
                    </mxGeometry>
                </mxCell>
                <mxCell id="499" value="" style="endArrow=none;html=1;strokeColor=#000000;fontColor=#000000;" parent="1" edge="1">
                    <mxGeometry width="50" height="50" relative="1" as="geometry">
                        <mxPoint x="580.61" y="214.37" as="sourcePoint"/>
                        <mxPoint x="600.61" y="201.37" as="targetPoint"/>
                        <Array as="points">
                            <mxPoint x="600.61" y="201.37"/>
                        </Array>
                    </mxGeometry>
                </mxCell>
                <mxCell id="500" value="" style="endArrow=none;html=1;strokeColor=#000000;fontColor=#000000;" parent="1" edge="1">
                    <mxGeometry width="50" height="50" relative="1" as="geometry">
                        <mxPoint x="610.61" y="209.37" as="sourcePoint"/>
                        <mxPoint x="599.61" y="201.37" as="targetPoint"/>
                    </mxGeometry>
                </mxCell>
                <mxCell id="501" value="" style="endArrow=none;html=1;strokeColor=#000000;fontColor=#000000;" parent="1" edge="1">
                    <mxGeometry width="50" height="50" relative="1" as="geometry">
                        <mxPoint x="588.61" y="214.74" as="sourcePoint"/>
                        <mxPoint x="569.61" y="199.37" as="targetPoint"/>
                    </mxGeometry>
                </mxCell>
                <mxCell id="502" value="" style="endArrow=none;html=1;strokeColor=#000000;fontColor=#000000;" parent="1" edge="1">
                    <mxGeometry width="50" height="50" relative="1" as="geometry">
                        <mxPoint x="559.61" y="206.37" as="sourcePoint"/>
                        <mxPoint x="570.61" y="199.37" as="targetPoint"/>
                        <Array as="points"/>
                    </mxGeometry>
                </mxCell>
                <mxCell id="503" value="" style="endArrow=none;html=1;strokeColor=#000000;fontColor=#000000;" parent="1" edge="1">
                    <mxGeometry width="50" height="50" relative="1" as="geometry">
                        <mxPoint x="588.61" y="214.74" as="sourcePoint"/>
                        <mxPoint x="568.61" y="227.37" as="targetPoint"/>
                        <Array as="points">
                            <mxPoint x="568.61" y="227.37"/>
                        </Array>
                    </mxGeometry>
                </mxCell>
                <mxCell id="504" value="" style="endArrow=none;html=1;strokeColor=#000000;fontColor=#000000;" parent="1" edge="1">
                    <mxGeometry width="50" height="50" relative="1" as="geometry">
                        <mxPoint x="558.61" y="219.37" as="sourcePoint"/>
                        <mxPoint x="569.61" y="227.37" as="targetPoint"/>
                    </mxGeometry>
                </mxCell>
                <mxCell id="505" value="" style="ellipse;whiteSpace=wrap;html=1;rotation=-180;fillColor=#FFFFFF;strokeColor=#000000;fontColor=#000000;container=0;" parent="1" vertex="1">
                    <mxGeometry x="579.61" y="209.37" width="10" height="10" as="geometry"/>
                </mxCell>
                <mxCell id="506" value="&lt;font style=&quot;font-size: 8px;&quot;&gt;arm1&lt;/font&gt;" style="text;html=1;strokeColor=none;fillColor=none;align=center;verticalAlign=middle;whiteSpace=wrap;rounded=0;dashed=1;fontColor=#000000;container=0;" parent="1" vertex="1">
                    <mxGeometry x="553.61" y="198.37" width="21" height="30" as="geometry"/>
                </mxCell>
                <mxCell id="507" value="UnitA.2_1" style="rounded=0;whiteSpace=wrap;html=1;fontSize=9;fillColor=light-dark(#a77676, #ededed);" parent="1" vertex="1">
                    <mxGeometry x="403.61" y="243.88000000000005" width="59.39" height="20" as="geometry"/>
                </mxCell>
                <mxCell id="508" value="UnitA.2_2" style="rounded=0;whiteSpace=wrap;html=1;fontSize=9;fillColor=light-dark(#a77676, #ededed);" parent="1" vertex="1">
                    <mxGeometry x="403.61" y="265.88000000000005" width="59.39" height="20" as="geometry"/>
                </mxCell>
                <mxCell id="509" value="UnitB.2_1" style="rounded=0;whiteSpace=wrap;html=1;fontSize=9;fillColor=light-dark(#6a9580, #7b9c8c);fontColor=#000000;strokeColor=#000000;" parent="1" vertex="1">
                    <mxGeometry x="467.61" y="243.88000000000005" width="59.39" height="20" as="geometry"/>
                </mxCell>
                <mxCell id="510" value="UnitB.2_2" style="rounded=0;whiteSpace=wrap;html=1;fontSize=9;fillColor=light-dark(#6a9580, #7b9c8c);fontColor=#000000;strokeColor=#000000;" parent="1" vertex="1">
                    <mxGeometry x="467.61" y="265.88000000000005" width="59.39" height="20" as="geometry"/>
                </mxCell>
                <mxCell id="511" value="UnitC.2_1" style="rounded=0;whiteSpace=wrap;html=1;fontSize=9;fillColor=light-dark(#76789E,#7D8C9B);fontColor=#000000;strokeColor=#000000;" parent="1" vertex="1">
                    <mxGeometry x="531.61" y="243.88000000000005" width="59.39" height="20" as="geometry"/>
                </mxCell>
                <mxCell id="512" value="UnitC.2_2" style="rounded=0;whiteSpace=wrap;html=1;fontSize=9;fillColor=light-dark(#76789E,#7D8C9B);fontColor=#000000;strokeColor=#000000;" parent="1" vertex="1">
                    <mxGeometry x="531.61" y="265.88000000000005" width="59.39" height="20" as="geometry"/>
                </mxCell>
                <mxCell id="513" value="UnitD.2_1" style="rounded=0;whiteSpace=wrap;html=1;fontSize=9;fillColor=#8C8C1C;fontColor=#000000;strokeColor=#000000;" parent="1" vertex="1">
                    <mxGeometry x="596.61" y="243.88000000000005" width="59.39" height="20" as="geometry"/>
                </mxCell>
                <mxCell id="514" value="UnitD.2_2" style="rounded=0;whiteSpace=wrap;html=1;fontSize=9;fillColor=#8C8C1C;fontColor=#000000;strokeColor=#000000;" parent="1" vertex="1">
                    <mxGeometry x="596.61" y="265.88000000000005" width="59.39" height="20" as="geometry"/>
                </mxCell>
                <mxCell id="515" value="&lt;b&gt;Main Transport Robot (MTR2)&lt;/b&gt;" style="shape=cube;whiteSpace=wrap;html=1;boundedLbl=1;backgroundOutline=1;darkOpacity=0.05;darkOpacity2=0.1;fontSize=9;verticalAlign=top;align=left;size=0;spacingLeft=4;fillColor=#f9f7ed;strokeColor=#36393d;dashed=1;fillStyle=solid;" parent="1" vertex="1">
                    <mxGeometry x="403.61" y="288.88" width="250" height="35" as="geometry"/>
                </mxCell>
                <mxCell id="516" value="&lt;font style=&quot;font-size: 8px;&quot;&gt;arm2&lt;/font&gt;" style="text;html=1;strokeColor=none;fillColor=none;align=center;verticalAlign=middle;whiteSpace=wrap;rounded=0;dashed=1;fontColor=#000000;container=0;" parent="1" vertex="1">
                    <mxGeometry x="594.61" y="291.88" width="21" height="30" as="geometry"/>
                </mxCell>
                <mxCell id="517" value="" style="endArrow=none;html=1;strokeColor=#000000;fontColor=#000000;" parent="1" edge="1">
                    <mxGeometry width="50" height="50" relative="1" as="geometry">
                        <mxPoint x="580.61" y="306.88" as="sourcePoint"/>
                        <mxPoint x="599.61" y="321.88" as="targetPoint"/>
                    </mxGeometry>
                </mxCell>
                <mxCell id="518" value="" style="endArrow=none;html=1;strokeColor=#000000;fontColor=#000000;" parent="1" edge="1">
                    <mxGeometry width="50" height="50" relative="1" as="geometry">
                        <mxPoint x="609.61" y="314.88" as="sourcePoint"/>
                        <mxPoint x="598.61" y="321.88" as="targetPoint"/>
                        <Array as="points"/>
                    </mxGeometry>
                </mxCell>
                <mxCell id="519" value="" style="endArrow=none;html=1;strokeColor=#000000;fontColor=#000000;" parent="1" edge="1">
                    <mxGeometry width="50" height="50" relative="1" as="geometry">
                        <mxPoint x="580.61" y="306.88" as="sourcePoint"/>
                        <mxPoint x="600.61" y="293.88" as="targetPoint"/>
                        <Array as="points">
                            <mxPoint x="600.61" y="293.88"/>
                        </Array>
                    </mxGeometry>
                </mxCell>
                <mxCell id="520" value="" style="endArrow=none;html=1;strokeColor=#000000;fontColor=#000000;" parent="1" edge="1">
                    <mxGeometry width="50" height="50" relative="1" as="geometry">
                        <mxPoint x="610.61" y="301.88" as="sourcePoint"/>
                        <mxPoint x="599.61" y="293.88" as="targetPoint"/>
                    </mxGeometry>
                </mxCell>
                <mxCell id="521" value="" style="endArrow=none;html=1;strokeColor=#000000;fontColor=#000000;" parent="1" edge="1">
                    <mxGeometry width="50" height="50" relative="1" as="geometry">
                        <mxPoint x="588.61" y="307.25" as="sourcePoint"/>
                        <mxPoint x="569.61" y="291.88" as="targetPoint"/>
                    </mxGeometry>
                </mxCell>
                <mxCell id="522" value="" style="endArrow=none;html=1;strokeColor=#000000;fontColor=#000000;" parent="1" edge="1">
                    <mxGeometry width="50" height="50" relative="1" as="geometry">
                        <mxPoint x="559.61" y="298.88" as="sourcePoint"/>
                        <mxPoint x="570.61" y="291.88" as="targetPoint"/>
                        <Array as="points"/>
                    </mxGeometry>
                </mxCell>
                <mxCell id="523" value="" style="endArrow=none;html=1;strokeColor=#000000;fontColor=#000000;" parent="1" edge="1">
                    <mxGeometry width="50" height="50" relative="1" as="geometry">
                        <mxPoint x="588.61" y="307.25" as="sourcePoint"/>
                        <mxPoint x="568.61" y="319.88" as="targetPoint"/>
                        <Array as="points">
                            <mxPoint x="568.61" y="319.88"/>
                        </Array>
                    </mxGeometry>
                </mxCell>
                <mxCell id="524" value="" style="endArrow=none;html=1;strokeColor=#000000;fontColor=#000000;" parent="1" edge="1">
                    <mxGeometry width="50" height="50" relative="1" as="geometry">
                        <mxPoint x="558.61" y="311.88" as="sourcePoint"/>
                        <mxPoint x="569.61" y="319.88" as="targetPoint"/>
                    </mxGeometry>
                </mxCell>
                <mxCell id="525" value="" style="ellipse;whiteSpace=wrap;html=1;rotation=-180;fillColor=#FFFFFF;strokeColor=#000000;fontColor=#000000;container=0;" parent="1" vertex="1">
                    <mxGeometry x="579.61" y="301.88" width="10" height="10" as="geometry"/>
                </mxCell>
                <mxCell id="526" value="&lt;font style=&quot;font-size: 8px;&quot;&gt;arm1&lt;/font&gt;" style="text;html=1;strokeColor=none;fillColor=none;align=center;verticalAlign=middle;whiteSpace=wrap;rounded=0;dashed=1;fontColor=#000000;container=0;" parent="1" vertex="1">
                    <mxGeometry x="553.61" y="290.88" width="21" height="30" as="geometry"/>
                </mxCell>
                <mxCell id="527" value="UnitG.1_1" style="rounded=0;whiteSpace=wrap;html=1;fontSize=9;fillColor=light-dark(#ac8bac, #ededed);" parent="1" vertex="1">
                    <mxGeometry x="403.61" y="334.00000000000006" width="59.39" height="20" as="geometry"/>
                </mxCell>
                <mxCell id="528" value="UnitG.1_2" style="rounded=0;whiteSpace=wrap;html=1;fontSize=9;fillColor=light-dark(#ac8bac, #ededed);" parent="1" vertex="1">
                    <mxGeometry x="403.61" y="356.00000000000006" width="59.39" height="20" as="geometry"/>
                </mxCell>
                <mxCell id="529" value="UnitG.1_3" style="rounded=0;whiteSpace=wrap;html=1;fontSize=9;fillColor=light-dark(#ac8bac, #ededed);fontColor=#000000;strokeColor=#000000;" parent="1" vertex="1">
                    <mxGeometry x="467.61" y="334.00000000000006" width="59.39" height="20" as="geometry"/>
                </mxCell>
                <mxCell id="530" value="UnitB.1_4" style="rounded=0;whiteSpace=wrap;html=1;fontSize=9;fillColor=light-dark(#ac8bac, #ededed);fontColor=#000000;strokeColor=#000000;" parent="1" vertex="1">
                    <mxGeometry x="467.61" y="356.00000000000006" width="59.39" height="20" as="geometry"/>
                </mxCell>
                <mxCell id="531" value="UnitF.1_1" style="rounded=0;whiteSpace=wrap;html=1;fontSize=9;fillColor=light-dark(#88a6aa, #7D8C9B);fontColor=#000000;strokeColor=#000000;" parent="1" vertex="1">
                    <mxGeometry x="531.61" y="334.00000000000006" width="59.39" height="20" as="geometry"/>
                </mxCell>
                <mxCell id="532" value="UnitF.1_2" style="rounded=0;whiteSpace=wrap;html=1;fontSize=9;fillColor=light-dark(#88a6aa, #7D8C9B);fontColor=#000000;strokeColor=#000000;" parent="1" vertex="1">
                    <mxGeometry x="531.61" y="356" width="59.39" height="19" as="geometry"/>
                </mxCell>
                <mxCell id="533" value="UnitF.1_3" style="rounded=0;whiteSpace=wrap;html=1;fontSize=9;fillColor=light-dark(#88a6aa, #7D8C9B);fontColor=#000000;strokeColor=#000000;" parent="1" vertex="1">
                    <mxGeometry x="596.61" y="334.00000000000006" width="59.39" height="20" as="geometry"/>
                </mxCell>
                <mxCell id="534" value="UnitF.1_4" style="rounded=0;whiteSpace=wrap;html=1;fontSize=9;fillColor=light-dark(#88a6aa, #7D8C9B);fontColor=#000000;strokeColor=#000000;" parent="1" vertex="1">
                    <mxGeometry x="596.61" y="356.00000000000006" width="59.39" height="20" as="geometry"/>
                </mxCell>
                <mxCell id="598" style="edgeStyle=none;html=1;" parent="1" edge="1">
                    <mxGeometry relative="1" as="geometry">
                        <mxPoint x="343" y="320.88" as="targetPoint"/>
                        <mxPoint x="393" y="361.13" as="sourcePoint"/>
                        <Array as="points">
                            <mxPoint x="343" y="360.88"/>
                        </Array>
                    </mxGeometry>
                </mxCell>
                <mxCell id="535" value="&lt;b&gt;Main Transport Robot (MTR1)&lt;/b&gt;" style="shape=cube;whiteSpace=wrap;html=1;boundedLbl=1;backgroundOutline=1;darkOpacity=0.05;darkOpacity2=0.1;fontSize=9;verticalAlign=top;align=left;size=0;spacingLeft=4;fillColor=#f9f7ed;strokeColor=#36393d;dashed=1;fillStyle=solid;" parent="1" vertex="1">
                    <mxGeometry x="403.61" y="379" width="250" height="35" as="geometry"/>
                </mxCell>
                <mxCell id="536" value="&lt;font style=&quot;font-size: 8px;&quot;&gt;arm2&lt;/font&gt;" style="text;html=1;strokeColor=none;fillColor=none;align=center;verticalAlign=middle;whiteSpace=wrap;rounded=0;dashed=1;fontColor=#000000;container=0;" parent="1" vertex="1">
                    <mxGeometry x="594.61" y="382" width="21" height="30" as="geometry"/>
                </mxCell>
                <mxCell id="537" value="" style="endArrow=none;html=1;strokeColor=#000000;fontColor=#000000;" parent="1" edge="1">
                    <mxGeometry width="50" height="50" relative="1" as="geometry">
                        <mxPoint x="580.61" y="397" as="sourcePoint"/>
                        <mxPoint x="599.61" y="412" as="targetPoint"/>
                    </mxGeometry>
                </mxCell>
                <mxCell id="538" value="" style="endArrow=none;html=1;strokeColor=#000000;fontColor=#000000;" parent="1" edge="1">
                    <mxGeometry width="50" height="50" relative="1" as="geometry">
                        <mxPoint x="609.61" y="405" as="sourcePoint"/>
                        <mxPoint x="598.61" y="412" as="targetPoint"/>
                        <Array as="points"/>
                    </mxGeometry>
                </mxCell>
                <mxCell id="539" value="" style="endArrow=none;html=1;strokeColor=#000000;fontColor=#000000;" parent="1" edge="1">
                    <mxGeometry width="50" height="50" relative="1" as="geometry">
                        <mxPoint x="580.61" y="397" as="sourcePoint"/>
                        <mxPoint x="600.61" y="384" as="targetPoint"/>
                        <Array as="points">
                            <mxPoint x="600.61" y="384"/>
                        </Array>
                    </mxGeometry>
                </mxCell>
                <mxCell id="540" value="" style="endArrow=none;html=1;strokeColor=#000000;fontColor=#000000;" parent="1" edge="1">
                    <mxGeometry width="50" height="50" relative="1" as="geometry">
                        <mxPoint x="610.61" y="392" as="sourcePoint"/>
                        <mxPoint x="599.61" y="384" as="targetPoint"/>
                    </mxGeometry>
                </mxCell>
                <mxCell id="541" value="" style="endArrow=none;html=1;strokeColor=#000000;fontColor=#000000;" parent="1" edge="1">
                    <mxGeometry width="50" height="50" relative="1" as="geometry">
                        <mxPoint x="588.61" y="397.37" as="sourcePoint"/>
                        <mxPoint x="569.61" y="382" as="targetPoint"/>
                    </mxGeometry>
                </mxCell>
                <mxCell id="542" value="" style="endArrow=none;html=1;strokeColor=#000000;fontColor=#000000;" parent="1" edge="1">
                    <mxGeometry width="50" height="50" relative="1" as="geometry">
                        <mxPoint x="559.61" y="389" as="sourcePoint"/>
                        <mxPoint x="570.61" y="382" as="targetPoint"/>
                        <Array as="points"/>
                    </mxGeometry>
                </mxCell>
                <mxCell id="543" value="" style="endArrow=none;html=1;strokeColor=#000000;fontColor=#000000;" parent="1" edge="1">
                    <mxGeometry width="50" height="50" relative="1" as="geometry">
                        <mxPoint x="588.61" y="397.37" as="sourcePoint"/>
                        <mxPoint x="568.61" y="410" as="targetPoint"/>
                        <Array as="points">
                            <mxPoint x="568.61" y="410"/>
                        </Array>
                    </mxGeometry>
                </mxCell>
                <mxCell id="544" value="" style="endArrow=none;html=1;strokeColor=#000000;fontColor=#000000;" parent="1" edge="1">
                    <mxGeometry width="50" height="50" relative="1" as="geometry">
                        <mxPoint x="558.61" y="402" as="sourcePoint"/>
                        <mxPoint x="569.61" y="410" as="targetPoint"/>
                    </mxGeometry>
                </mxCell>
                <mxCell id="545" value="" style="ellipse;whiteSpace=wrap;html=1;rotation=-180;fillColor=#FFFFFF;strokeColor=#000000;fontColor=#000000;container=0;" parent="1" vertex="1">
                    <mxGeometry x="579.61" y="392" width="10" height="10" as="geometry"/>
                </mxCell>
                <mxCell id="546" value="&lt;font style=&quot;font-size: 8px;&quot;&gt;arm1&lt;/font&gt;" style="text;html=1;strokeColor=none;fillColor=none;align=center;verticalAlign=middle;whiteSpace=wrap;rounded=0;dashed=1;fontColor=#000000;container=0;" parent="1" vertex="1">
                    <mxGeometry x="553.61" y="381" width="21" height="30" as="geometry"/>
                </mxCell>
                <mxCell id="547" value="&lt;b&gt;&lt;font style=&quot;font-size: 8px;&quot;&gt;Interface Loading Robot (ILR)&lt;/font&gt;&lt;/b&gt;" style="shape=cube;whiteSpace=wrap;html=1;boundedLbl=1;backgroundOutline=1;darkOpacity=0.05;darkOpacity2=0.1;fontSize=9;verticalAlign=top;align=left;size=0;spacingLeft=4;fillColor=#f9f7ed;strokeColor=#36393d;dashed=1;fillStyle=solid;" parent="1" vertex="1">
                    <mxGeometry x="670" y="147.88" width="83" height="70" as="geometry"/>
                </mxCell>
                <mxCell id="548" value="" style="group;strokeColor=none;fontColor=#000000;" parent="1" vertex="1" connectable="0">
                    <mxGeometry x="685.8" y="178.76" width="57" height="30" as="geometry"/>
                </mxCell>
                <mxCell id="549" value="" style="group;strokeColor=none;fontColor=#000000;" parent="548" vertex="1" connectable="0">
                    <mxGeometry width="52" height="30" as="geometry"/>
                </mxCell>
                <mxCell id="550" value="" style="endArrow=none;html=1;strokeColor=#000000;fontColor=#000000;" parent="549" edge="1">
                    <mxGeometry width="50" height="50" relative="1" as="geometry">
                        <mxPoint x="22" y="15" as="sourcePoint"/>
                        <mxPoint x="41" y="30" as="targetPoint"/>
                    </mxGeometry>
                </mxCell>
                <mxCell id="551" value="" style="endArrow=none;html=1;strokeColor=#000000;fontColor=#000000;" parent="549" edge="1">
                    <mxGeometry width="50" height="50" relative="1" as="geometry">
                        <mxPoint x="51" y="23" as="sourcePoint"/>
                        <mxPoint x="40" y="30" as="targetPoint"/>
                        <Array as="points"/>
                    </mxGeometry>
                </mxCell>
                <mxCell id="552" value="" style="endArrow=none;html=1;strokeColor=#000000;fontColor=#000000;" parent="549" edge="1">
                    <mxGeometry width="50" height="50" relative="1" as="geometry">
                        <mxPoint x="22" y="15" as="sourcePoint"/>
                        <mxPoint x="42" y="2" as="targetPoint"/>
                        <Array as="points">
                            <mxPoint x="42" y="2"/>
                        </Array>
                    </mxGeometry>
                </mxCell>
                <mxCell id="553" value="" style="endArrow=none;html=1;strokeColor=#000000;fontColor=#000000;" parent="549" edge="1">
                    <mxGeometry width="50" height="50" relative="1" as="geometry">
                        <mxPoint x="52" y="10" as="sourcePoint"/>
                        <mxPoint x="41" y="2" as="targetPoint"/>
                    </mxGeometry>
                </mxCell>
                <mxCell id="554" value="" style="endArrow=none;html=1;strokeColor=#000000;fontColor=#000000;" parent="549" edge="1">
                    <mxGeometry width="50" height="50" relative="1" as="geometry">
                        <mxPoint x="30" y="15.370000000000005" as="sourcePoint"/>
                        <mxPoint x="11" as="targetPoint"/>
                    </mxGeometry>
                </mxCell>
                <mxCell id="555" value="" style="endArrow=none;html=1;strokeColor=#000000;fontColor=#000000;" parent="549" edge="1">
                    <mxGeometry width="50" height="50" relative="1" as="geometry">
                        <mxPoint x="1" y="7" as="sourcePoint"/>
                        <mxPoint x="12" as="targetPoint"/>
                        <Array as="points"/>
                    </mxGeometry>
                </mxCell>
                <mxCell id="556" value="" style="endArrow=none;html=1;strokeColor=#000000;fontColor=#000000;" parent="549" edge="1">
                    <mxGeometry width="50" height="50" relative="1" as="geometry">
                        <mxPoint x="30" y="15.370000000000005" as="sourcePoint"/>
                        <mxPoint x="10" y="28" as="targetPoint"/>
                        <Array as="points">
                            <mxPoint x="10" y="28"/>
                        </Array>
                    </mxGeometry>
                </mxCell>
                <mxCell id="557" value="" style="endArrow=none;html=1;strokeColor=#000000;fontColor=#000000;" parent="549" edge="1">
                    <mxGeometry width="50" height="50" relative="1" as="geometry">
                        <mxPoint y="20" as="sourcePoint"/>
                        <mxPoint x="11" y="28" as="targetPoint"/>
                    </mxGeometry>
                </mxCell>
                <mxCell id="558" value="" style="ellipse;whiteSpace=wrap;html=1;rotation=-180;fillColor=#FFFFFF;strokeColor=#000000;fontColor=#000000;" parent="549" vertex="1">
                    <mxGeometry x="21" y="10" width="10" height="10" as="geometry"/>
                </mxCell>
                <mxCell id="559" value="&lt;font style=&quot;font-size: 8px;&quot;&gt;arm1&lt;/font&gt;" style="text;html=1;strokeColor=none;fillColor=none;align=center;verticalAlign=middle;whiteSpace=wrap;rounded=0;dashed=1;fontColor=#000000;" parent="549" vertex="1">
                    <mxGeometry x="-5" y="-1" width="21" height="30" as="geometry"/>
                </mxCell>
                <mxCell id="560" value="&lt;font style=&quot;font-size: 8px;&quot;&gt;arm2&lt;/font&gt;" style="text;html=1;strokeColor=none;fillColor=none;align=center;verticalAlign=middle;whiteSpace=wrap;rounded=0;dashed=1;fontColor=#000000;" parent="548" vertex="1">
                    <mxGeometry x="36" width="21" height="30" as="geometry"/>
                </mxCell>
                <mxCell id="561" value="&lt;b&gt;&lt;font style=&quot;font-size: 8px;&quot;&gt;Interface Unloading Robot (IUR)&lt;/font&gt;&lt;/b&gt;" style="shape=cube;whiteSpace=wrap;html=1;boundedLbl=1;backgroundOutline=1;darkOpacity=0.05;darkOpacity2=0.1;fontSize=9;verticalAlign=top;align=left;size=0;spacingLeft=4;fillColor=#f9f7ed;strokeColor=#36393d;dashed=1;fillStyle=solid;" parent="1" vertex="1">
                    <mxGeometry x="670" y="237.88" width="83" height="70" as="geometry"/>
                </mxCell>
                <mxCell id="562" value="" style="group;strokeColor=none;fontColor=#000000;" parent="1" vertex="1" connectable="0">
                    <mxGeometry x="685.8" y="268.76" width="57" height="30" as="geometry"/>
                </mxCell>
                <mxCell id="563" value="" style="group;strokeColor=none;fontColor=#000000;" parent="562" vertex="1" connectable="0">
                    <mxGeometry width="52" height="30" as="geometry"/>
                </mxCell>
                <mxCell id="564" value="" style="endArrow=none;html=1;strokeColor=#000000;fontColor=#000000;" parent="563" edge="1">
                    <mxGeometry width="50" height="50" relative="1" as="geometry">
                        <mxPoint x="22" y="15" as="sourcePoint"/>
                        <mxPoint x="41" y="30" as="targetPoint"/>
                    </mxGeometry>
                </mxCell>
                <mxCell id="565" value="" style="endArrow=none;html=1;strokeColor=#000000;fontColor=#000000;" parent="563" edge="1">
                    <mxGeometry width="50" height="50" relative="1" as="geometry">
                        <mxPoint x="51" y="23" as="sourcePoint"/>
                        <mxPoint x="40" y="30" as="targetPoint"/>
                        <Array as="points"/>
                    </mxGeometry>
                </mxCell>
                <mxCell id="566" value="" style="endArrow=none;html=1;strokeColor=#000000;fontColor=#000000;" parent="563" edge="1">
                    <mxGeometry width="50" height="50" relative="1" as="geometry">
                        <mxPoint x="22" y="15" as="sourcePoint"/>
                        <mxPoint x="42" y="2" as="targetPoint"/>
                        <Array as="points">
                            <mxPoint x="42" y="2"/>
                        </Array>
                    </mxGeometry>
                </mxCell>
                <mxCell id="567" value="" style="endArrow=none;html=1;strokeColor=#000000;fontColor=#000000;" parent="563" edge="1">
                    <mxGeometry width="50" height="50" relative="1" as="geometry">
                        <mxPoint x="52" y="10" as="sourcePoint"/>
                        <mxPoint x="41" y="2" as="targetPoint"/>
                    </mxGeometry>
                </mxCell>
                <mxCell id="568" value="" style="endArrow=none;html=1;strokeColor=#000000;fontColor=#000000;" parent="563" edge="1">
                    <mxGeometry width="50" height="50" relative="1" as="geometry">
                        <mxPoint x="30" y="15.370000000000005" as="sourcePoint"/>
                        <mxPoint x="11" as="targetPoint"/>
                    </mxGeometry>
                </mxCell>
                <mxCell id="569" value="" style="endArrow=none;html=1;strokeColor=#000000;fontColor=#000000;" parent="563" edge="1">
                    <mxGeometry width="50" height="50" relative="1" as="geometry">
                        <mxPoint x="1" y="7" as="sourcePoint"/>
                        <mxPoint x="12" as="targetPoint"/>
                        <Array as="points"/>
                    </mxGeometry>
                </mxCell>
                <mxCell id="570" value="" style="endArrow=none;html=1;strokeColor=#000000;fontColor=#000000;" parent="563" edge="1">
                    <mxGeometry width="50" height="50" relative="1" as="geometry">
                        <mxPoint x="30" y="15.370000000000005" as="sourcePoint"/>
                        <mxPoint x="10" y="28" as="targetPoint"/>
                        <Array as="points">
                            <mxPoint x="10" y="28"/>
                        </Array>
                    </mxGeometry>
                </mxCell>
                <mxCell id="571" value="" style="endArrow=none;html=1;strokeColor=#000000;fontColor=#000000;" parent="563" edge="1">
                    <mxGeometry width="50" height="50" relative="1" as="geometry">
                        <mxPoint y="20" as="sourcePoint"/>
                        <mxPoint x="11" y="28" as="targetPoint"/>
                    </mxGeometry>
                </mxCell>
                <mxCell id="572" value="" style="ellipse;whiteSpace=wrap;html=1;rotation=-180;fillColor=#FFFFFF;strokeColor=#000000;fontColor=#000000;" parent="563" vertex="1">
                    <mxGeometry x="21" y="10" width="10" height="10" as="geometry"/>
                </mxCell>
                <mxCell id="573" value="&lt;font style=&quot;font-size: 8px;&quot;&gt;arm1&lt;/font&gt;" style="text;html=1;strokeColor=none;fillColor=none;align=center;verticalAlign=middle;whiteSpace=wrap;rounded=0;dashed=1;fontColor=#000000;" parent="563" vertex="1">
                    <mxGeometry x="-5" y="-1" width="21" height="30" as="geometry"/>
                </mxCell>
                <mxCell id="574" value="&lt;font style=&quot;font-size: 8px;&quot;&gt;arm2&lt;/font&gt;" style="text;html=1;strokeColor=none;fillColor=none;align=center;verticalAlign=middle;whiteSpace=wrap;rounded=0;dashed=1;fontColor=#000000;" parent="562" vertex="1">
                    <mxGeometry x="36" width="21" height="30" as="geometry"/>
                </mxCell>
                <mxCell id="575" value="" style="shape=cube;whiteSpace=wrap;html=1;boundedLbl=1;backgroundOutline=1;darkOpacity=0.05;darkOpacity2=0.1;fontSize=9;align=left;verticalAlign=top;size=0;spacingLeft=4;fillColor=#FFFFFF;fontColor=#000000;strokeColor=#000000;" parent="1" vertex="1">
                    <mxGeometry x="762" y="140.64" width="80" height="171.36" as="geometry"/>
                </mxCell>
                <mxCell id="576" value="UnitE.1" style="rounded=0;whiteSpace=wrap;html=1;fillColor=light-dark(#bba5a5, #7d7d7d);fontColor=#000000;strokeColor=#000000;fontSize=10;" parent="1" vertex="1">
                    <mxGeometry x="769.25" y="151.97" width="65" height="12.18" as="geometry"/>
                </mxCell>
                <mxCell id="577" value="UnitE.2" style="rounded=0;whiteSpace=wrap;html=1;fillColor=light-dark(#bba5a5, #7d7d7d);fontColor=#000000;strokeColor=#000000;fontSize=10;" parent="1" vertex="1">
                    <mxGeometry x="769.25" y="168.31999999999996" width="65" height="12.18" as="geometry"/>
                </mxCell>
                <mxCell id="578" value="UnitE.3" style="rounded=0;whiteSpace=wrap;html=1;fillColor=light-dark(#bba5a5, #7d7d7d);fontColor=#000000;strokeColor=#000000;fontSize=10;" parent="1" vertex="1">
                    <mxGeometry x="769.25" y="184.51000000000002" width="65" height="12.18" as="geometry"/>
                </mxCell>
                <mxCell id="579" value="UnitE.4" style="rounded=0;whiteSpace=wrap;html=1;fillColor=light-dark(#bba5a5, #7d7d7d);fontColor=#000000;strokeColor=#000000;fontSize=10;" parent="1" vertex="1">
                    <mxGeometry x="769.75" y="200.18999999999997" width="65" height="12.18" as="geometry"/>
                </mxCell>
                <mxCell id="584" value="UnitE.5" style="rounded=0;whiteSpace=wrap;html=1;fillColor=light-dark(#bba5a5, #7d7d7d);fontColor=#000000;strokeColor=#000000;fontSize=10;" parent="1" vertex="1">
                    <mxGeometry x="769.75" y="216" width="65" height="12.18" as="geometry"/>
                </mxCell>
                <mxCell id="585" value="UnitE.6" style="rounded=0;whiteSpace=wrap;html=1;fillColor=light-dark(#bba5a5, #7d7d7d);fontColor=#000000;strokeColor=#000000;fontSize=10;" parent="1" vertex="1">
                    <mxGeometry x="769.75" y="232.34999999999997" width="65" height="12.18" as="geometry"/>
                </mxCell>
                <mxCell id="586" value="UnitE.7" style="rounded=0;whiteSpace=wrap;html=1;fillColor=light-dark(#bba5a5, #7d7d7d);fontColor=#000000;strokeColor=#000000;fontSize=10;" parent="1" vertex="1">
                    <mxGeometry x="769.75" y="248.54000000000002" width="65" height="12.18" as="geometry"/>
                </mxCell>
                <mxCell id="587" value="UnitE.8" style="rounded=0;whiteSpace=wrap;html=1;fillColor=light-dark(#bba5a5, #7d7d7d);fontColor=#000000;strokeColor=#000000;fontSize=10;" parent="1" vertex="1">
                    <mxGeometry x="770.25" y="264.21999999999997" width="65" height="12.18" as="geometry"/>
                </mxCell>
                <mxCell id="588" value="UnitE.9" style="rounded=0;whiteSpace=wrap;html=1;fillColor=light-dark(#bba5a5, #7d7d7d);fontColor=#000000;strokeColor=#000000;fontSize=10;" parent="1" vertex="1">
                    <mxGeometry x="770.25" y="280.45000000000005" width="65" height="12.18" as="geometry"/>
                </mxCell>
                <mxCell id="589" value="UnitE.10" style="rounded=0;whiteSpace=wrap;html=1;fillColor=light-dark(#bba5a5, #7d7d7d);fontColor=#000000;strokeColor=#000000;fontSize=10;" parent="1" vertex="1">
                    <mxGeometry x="770.75" y="296.13" width="65" height="12.18" as="geometry"/>
                </mxCell>
                <mxCell id="599" style="edgeStyle=none;html=1;entryX=-0.003;entryY=0.228;entryDx=0;entryDy=0;entryPerimeter=0;" parent="1" edge="1">
                    <mxGeometry relative="1" as="geometry">
                        <mxPoint x="156.83377565863907" y="175.37" as="sourcePoint"/>
                        <mxPoint x="205.56999999999994" y="148.79999999999995" as="targetPoint"/>
                        <Array as="points">
                            <mxPoint x="157" y="149"/>
                        </Array>
                    </mxGeometry>
                </mxCell>
                <mxCell id="600" style="edgeStyle=none;html=1;entryX=0.578;entryY=1.002;entryDx=0;entryDy=0;entryPerimeter=0;" parent="1" edge="1">
                    <mxGeometry relative="1" as="geometry">
                        <mxPoint x="204.61000000000013" y="303" as="sourcePoint"/>
                        <mxPoint x="160.2260000000001" y="263.51199999999994" as="targetPoint"/>
                        <Array as="points">
                            <mxPoint x="160" y="303"/>
                        </Array>
                    </mxGeometry>
                </mxCell>
                <mxCell id="607" value="" style="endArrow=classic;html=1;" parent="1" edge="1">
                    <mxGeometry width="50" height="50" relative="1" as="geometry">
                        <mxPoint x="713" y="319" as="sourcePoint"/>
                        <mxPoint x="673" y="359" as="targetPoint"/>
                        <Array as="points">
                            <mxPoint x="713" y="359"/>
                        </Array>
                    </mxGeometry>
                </mxCell>
                <mxCell id="608" value="" style="endArrow=classic;html=1;" parent="1" edge="1">
                    <mxGeometry width="50" height="50" relative="1" as="geometry">
                        <mxPoint x="670" y="77" as="sourcePoint"/>
                        <mxPoint x="710" y="137" as="targetPoint"/>
                        <Array as="points">
                            <mxPoint x="710" y="77"/>
                        </Array>
                    </mxGeometry>
                </mxCell>
                <mxCell id="611" value="" style="endArrow=classic;startArrow=classic;html=1;" parent="1" edge="1">
                    <mxGeometry width="50" height="50" relative="1" as="geometry">
                        <mxPoint x="742.8" y="178.76492063492068" as="sourcePoint"/>
                        <mxPoint x="767.3" y="178.8" as="targetPoint"/>
                    </mxGeometry>
                </mxCell>
                <mxCell id="613" value="" style="endArrow=classic;startArrow=classic;html=1;" parent="1" edge="1">
                    <mxGeometry width="50" height="50" relative="1" as="geometry">
                        <mxPoint x="104.22" y="222.31" as="sourcePoint"/>
                        <mxPoint x="123.61" y="223" as="targetPoint"/>
                    </mxGeometry>
                </mxCell>
                <mxCell id="614" value="" style="endArrow=classic;startArrow=classic;html=1;" parent="1" edge="1">
                    <mxGeometry width="50" height="50" relative="1" as="geometry">
                        <mxPoint x="284.22" y="196" as="sourcePoint"/>
                        <mxPoint x="303.61" y="196.69" as="targetPoint"/>
                    </mxGeometry>
                </mxCell>
                <mxCell id="618" value="" style="endArrow=classic;startArrow=classic;html=1;" parent="1" edge="1">
                    <mxGeometry width="50" height="50" relative="1" as="geometry">
                        <mxPoint x="742.8" y="268.76492063492066" as="sourcePoint"/>
                        <mxPoint x="767.3" y="268.8" as="targetPoint"/>
                    </mxGeometry>
                </mxCell>
                <mxCell id="443" value="&lt;b style=&quot;&quot;&gt;&lt;font&gt;Unloading Buffer&lt;/font&gt;&lt;br&gt;&lt;/b&gt;" style="shape=cube;whiteSpace=wrap;html=1;boundedLbl=1;backgroundOutline=1;darkOpacity=0.05;darkOpacity2=0.1;fontSize=9;align=left;verticalAlign=top;size=0;spacingLeft=4;fillColor=#FFFFFF;fontColor=#000000;strokeColor=#000000;" parent="1" vertex="1">
                    <mxGeometry x="209.61" y="243" width="80" height="100" as="geometry"/>
                </mxCell>
                <mxCell id="444" value="UDBuf.1" style="rounded=0;whiteSpace=wrap;html=1;fillColor=light-dark(#a0b497, #7d7d7d);fontColor=#000000;strokeColor=#000000;fontSize=10;" parent="1" vertex="1">
                    <mxGeometry x="218.10999999999999" y="270.56" width="65" height="12.18" as="geometry"/>
                </mxCell>
                <mxCell id="445" value="&lt;span style=&quot;color: rgb(0, 0, 0);&quot;&gt;UDBuf&lt;/span&gt;.2" style="rounded=0;whiteSpace=wrap;html=1;fillColor=light-dark(#a0b497, #7d7d7d);fontColor=#000000;strokeColor=#000000;fontSize=10;" parent="1" vertex="1">
                    <mxGeometry x="218.10999999999999" y="286.90999999999997" width="65" height="12.18" as="geometry"/>
                </mxCell>
                <mxCell id="446" value="&lt;span style=&quot;color: rgb(0, 0, 0);&quot;&gt;UDBuf&lt;/span&gt;.3" style="rounded=0;whiteSpace=wrap;html=1;fillColor=light-dark(#a0b497, #7d7d7d);fontColor=#000000;strokeColor=#000000;fontSize=10;" parent="1" vertex="1">
                    <mxGeometry x="218.10999999999999" y="303.1" width="65" height="12.18" as="geometry"/>
                </mxCell>
                <mxCell id="447" value="&lt;span style=&quot;color: rgb(0, 0, 0);&quot;&gt;UDBuf&lt;/span&gt;.4" style="rounded=0;whiteSpace=wrap;html=1;fillColor=light-dark(#a0b497, #7d7d7d);fontColor=#000000;strokeColor=#000000;fontSize=10;" parent="1" vertex="1">
                    <mxGeometry x="218.60999999999999" y="318.78" width="65" height="12.18" as="geometry"/>
                </mxCell>
                <mxCell id="615" value="" style="endArrow=classic;startArrow=classic;html=1;" parent="1" edge="1">
                    <mxGeometry width="50" height="50" relative="1" as="geometry">
                        <mxPoint x="283.61" y="289.74" as="sourcePoint"/>
                        <mxPoint x="303" y="290.43" as="targetPoint"/>
                    </mxGeometry>
                </mxCell>
                <mxCell id="619" value="Load Port: 1" style="rounded=0;whiteSpace=wrap;html=1;fillColor=#008a00;fontColor=#ffffff;strokeColor=#005700;fontSize=10;" parent="1" vertex="1">
                    <mxGeometry x="6.609999999999999" y="450.82" width="70" height="20" as="geometry"/>
                </mxCell>
                <mxCell id="620" value="LDBuf: 2" style="rounded=0;whiteSpace=wrap;html=1;fillColor=light-dark(#a4b497, #7d7d7d);fontColor=#000000;strokeColor=#000000;fontSize=10;" parent="1" vertex="1">
                    <mxGeometry x="83" y="450.82" width="70" height="20" as="geometry"/>
                </mxCell>
                <mxCell id="621" value="UnitA: 3" style="rounded=0;whiteSpace=wrap;html=1;fontSize=10;fillColor=light-dark(#a77676, #ededed);" parent="1" vertex="1">
                    <mxGeometry x="159" y="450.82" width="70" height="20" as="geometry"/>
                </mxCell>
                <mxCell id="622" value="UnitB: 4" style="rounded=0;whiteSpace=wrap;html=1;fontSize=10;fillColor=light-dark(#6a9580, #7b9c8c);fontColor=#000000;strokeColor=#000000;" parent="1" vertex="1">
                    <mxGeometry x="236" y="450.82" width="70" height="20" as="geometry"/>
                </mxCell>
                <mxCell id="623" value="UnitC: 5" style="rounded=0;whiteSpace=wrap;html=1;fontSize=10;fillColor=light-dark(#76789E,#7D8C9B);fontColor=#000000;strokeColor=#000000;" parent="1" vertex="1">
                    <mxGeometry x="312" y="450.82" width="70" height="20" as="geometry"/>
                </mxCell>
                <mxCell id="624" value="UnitD: 6" style="rounded=0;whiteSpace=wrap;html=1;fontSize=10;fillColor=#8C8C1C;fontColor=#000000;strokeColor=#000000;" parent="1" vertex="1">
                    <mxGeometry x="388" y="450.82" width="70" height="20" as="geometry"/>
                </mxCell>
                <mxCell id="625" value="UnitE: 7" style="rounded=0;whiteSpace=wrap;html=1;fillColor=light-dark(#bba5a5, #7d7d7d);fontColor=#000000;strokeColor=#000000;fontSize=10;" parent="1" vertex="1">
                    <mxGeometry x="465" y="450.82" width="70" height="20" as="geometry"/>
                </mxCell>
                <mxCell id="627" value="UnitF: 8" style="rounded=0;whiteSpace=wrap;html=1;fontSize=10;fillColor=light-dark(#88a6aa, #7D8C9B);fontColor=#000000;strokeColor=#000000;" parent="1" vertex="1">
                    <mxGeometry x="541" y="450.82" width="70" height="20" as="geometry"/>
                </mxCell>
                <mxCell id="628" value="UnitG: 9" style="rounded=0;whiteSpace=wrap;html=1;fontSize=10;fillColor=light-dark(#ac8bac, #ededed);fontColor=#000000;strokeColor=#000000;" parent="1" vertex="1">
                    <mxGeometry x="617" y="450.82" width="70" height="20" as="geometry"/>
                </mxCell>
                <mxCell id="629" value="UDBuf: 10" style="rounded=0;whiteSpace=wrap;html=1;fillColor=light-dark(#a0b497, #7d7d7d);fontColor=#000000;strokeColor=#000000;fontSize=10;" parent="1" vertex="1">
                    <mxGeometry x="694" y="450.82" width="70" height="20" as="geometry"/>
                </mxCell>
                <mxCell id="630" value="Load Port: 11" style="rounded=0;whiteSpace=wrap;html=1;fillColor=#008a00;fontColor=#ffffff;strokeColor=#005700;fontSize=10;" parent="1" vertex="1">
                    <mxGeometry x="770" y="450.82" width="70" height="20" as="geometry"/>
                </mxCell>
                <mxCell id="631" value="Process Flow (Waypoint)" style="text;html=1;align=center;verticalAlign=middle;whiteSpace=wrap;rounded=0;" parent="1" vertex="1">
                    <mxGeometry x="6.609999999999999" y="411" width="136.39" height="30" as="geometry"/>
                </mxCell>
                <mxCell id="632" value="" style="endArrow=classic;html=1;" parent="1" edge="1">
                    <mxGeometry width="50" height="50" relative="1" as="geometry">
                        <mxPoint x="9" y="439" as="sourcePoint"/>
                        <mxPoint x="279" y="439" as="targetPoint"/>
                    </mxGeometry>
                </mxCell>
            </root>
        </mxGraphModel>
    </diagram>
</mxfile>